 <svg width="203.2" height="20.902" viewBox="0 0 203.2 20.902" xmlns="http://www.w3.org/2000/svg"><g id="svgGroup" stroke-linecap="round" fill-rule="evenodd" font-size="9pt" stroke="#6f409e" stroke-width="0.25mm" fill="#6f409e" style="stroke:#6f409e;stroke-width:0.25mm;fill:#6f409e"><path d=" M 97.225 13.7 L 97.225 4.65 Q 97.225 2.675 97.125 1.725 L 94.8 1.425 A 1.417 1.417 0 0 1 94.725 0.982 Q 94.724 0.754 94.8 0.525 A 64.977 64.977 0 0 0 97.48 0.599 A 58.752 58.752 0 0 0 97.85 0.6 A 46.573 46.573 0 0 0 99.7 0.565 A 37.352 37.352 0 0 0 100.875 0.5 Q 100.975 1.05 100.875 1.425 L 98.6 1.675 L 98.6 20.4 L 97.275 20.4 L 86.25 5.475 Q 85.475 4.45 84.425 2.8 Q 84.55 3.95 84.55 5.575 L 84.55 16.325 A 63.724 63.724 0 0 0 84.556 17.249 Q 84.575 18.538 84.65 19.25 L 86.975 19.55 A 1.417 1.417 0 0 1 87.05 19.993 Q 87.051 20.221 86.976 20.449 A 2.261 2.261 0 0 1 86.975 20.45 Q 84.825 20.4 83.925 20.4 Q 82.45 20.4 80.9 20.475 Q 80.8 19.925 80.9 19.55 L 83.175 19.3 L 83.175 4.575 Q 83.175 2.6 83.075 1.65 L 81 1.35 Q 80.854 0.935 80.993 0.52 A 1.425 1.425 0 0 1 81 0.5 L 85.9 0.5 L 95.925 14.15 A 9.834 9.834 0 0 1 96.107 14.41 Q 96.198 14.545 96.296 14.697 A 17.172 17.172 0 0 1 96.362 14.8 A 12.508 12.508 0 0 1 96.548 15.103 Q 96.628 15.237 96.713 15.387 A 22.437 22.437 0 0 1 96.887 15.7 A 28.037 28.037 0 0 0 97.024 15.947 Q 97.173 16.213 97.285 16.396 A 6.674 6.674 0 0 0 97.35 16.5 A 36.992 36.992 0 0 1 97.246 14.79 A 29.666 29.666 0 0 1 97.225 13.7 Z M 15.5 19.225 L 17.3 19.475 A 1.46 1.46 0 0 1 17.342 19.713 Q 17.37 20.013 17.3 20.398 A 3.329 3.329 0 0 1 17.3 20.4 L 13.05 20.4 L 9.275 13.55 Q 8.783 12.615 8.323 11.96 A 7.418 7.418 0 0 0 7.85 11.35 L 7.5 11.35 Q 6.225 11.35 4.925 11.2 L 4.925 19.3 L 7.2 19.55 A 1.46 1.46 0 0 1 7.242 19.788 Q 7.27 20.088 7.2 20.473 A 3.329 3.329 0 0 1 7.2 20.475 Q 5.676 20.403 3.777 20.4 A 102.859 102.859 0 0 0 3.65 20.4 Q 2.636 20.4 1.326 20.424 A 217.729 217.729 0 0 0 0.075 20.45 A 1.417 1.417 0 0 1 0 20.007 Q -0.001 19.78 0.074 19.552 A 2.261 2.261 0 0 1 0.075 19.55 L 2.15 19.25 Q 2.25 18.3 2.25 16.325 L 2.25 1.6 L 0.225 1.35 A 1.46 1.46 0 0 1 0.183 1.112 Q 0.155 0.813 0.225 0.427 A 3.329 3.329 0 0 1 0.225 0.425 A 31.655 31.655 0 0 0 0.813 0.419 Q 1.76 0.401 3.322 0.333 A 213.742 213.742 0 0 0 3.488 0.325 Q 5.725 0.225 7.55 0.225 A 15.127 15.127 0 0 1 9.415 0.332 Q 11.455 0.586 12.623 1.447 A 3.979 3.979 0 0 1 12.975 1.738 Q 14.6 3.25 14.6 5.95 A 4.334 4.334 0 0 1 13.544 8.794 A 5.486 5.486 0 0 1 13.475 8.875 A 6.526 6.526 0 0 1 11.394 10.46 A 8.169 8.169 0 0 1 10.525 10.825 Q 11.6 12.65 12.538 14.25 Q 13.458 15.821 13.884 16.597 A 30.313 30.313 0 0 1 13.9 16.625 A 108.559 108.559 0 0 0 14.294 17.338 Q 14.482 17.675 14.652 17.973 A 65.295 65.295 0 0 0 14.675 18.013 Q 15.025 18.625 15.188 18.85 A 3.867 3.867 0 0 0 15.327 19.033 Q 15.416 19.141 15.5 19.225 Z M 190.275 7.05 L 190.275 16.85 A 59.192 59.192 0 0 0 190.28 17.625 Q 190.292 18.581 190.339 19.087 A 5.893 5.893 0 0 0 190.35 19.2 L 192.325 19.45 A 2.179 2.179 0 0 1 192.357 19.714 Q 192.37 19.924 192.351 20.167 A 4.342 4.342 0 0 1 192.325 20.4 Q 190.5 20.475 188.525 20.75 Q 188.355 20.58 188.279 20.292 A 1.482 1.482 0 0 1 188.275 20.275 L 188.15 18.05 A 11.852 11.852 0 0 1 187.219 19.117 Q 186.613 19.728 185.988 20.15 Q 184.875 20.9 183.375 20.9 A 4.979 4.979 0 0 1 182.175 20.762 A 3.763 3.763 0 0 1 180.813 20.125 A 2.361 2.361 0 0 1 180.011 19.013 Q 179.863 18.61 179.808 18.11 A 5.79 5.79 0 0 1 179.775 17.475 L 179.775 11.925 A 175.437 175.437 0 0 0 179.772 10.929 Q 179.761 8.925 179.7 8.275 L 177.725 8.025 Q 177.627 7.656 177.722 7.094 A 4.143 4.143 0 0 1 177.725 7.075 A 36.376 36.376 0 0 0 179.075 6.95 Q 180.375 6.807 182.025 6.55 A 1.238 1.238 0 0 1 182.158 6.726 Q 182.224 6.832 182.254 6.939 A 0.66 0.66 0 0 1 182.275 7.05 A 2.714 2.714 0 0 0 182.246 7.336 Q 182.156 8.674 182.15 15.287 A 1073.486 1073.486 0 0 0 182.15 16.225 A 11.858 11.858 0 0 0 182.176 17.037 Q 182.253 18.16 182.563 18.713 A 1.353 1.353 0 0 0 183.397 19.359 Q 183.646 19.433 183.953 19.447 A 3.222 3.222 0 0 0 184.1 19.45 Q 185.863 19.45 187.343 17.689 A 9.087 9.087 0 0 0 187.9 16.95 L 187.9 11.9 A 172.503 172.503 0 0 0 187.897 10.912 Q 187.886 8.925 187.825 8.275 L 185.85 8.025 Q 185.752 7.656 185.847 7.094 A 4.143 4.143 0 0 1 185.85 7.075 A 24.36 24.36 0 0 0 186.673 7.005 Q 188.019 6.869 190.025 6.55 A 1.238 1.238 0 0 1 190.158 6.726 Q 190.224 6.832 190.254 6.939 A 0.66 0.66 0 0 1 190.275 7.05 Z M 35.425 7.875 L 38.95 7.875 Q 39.091 8.321 38.968 8.788 A 1.908 1.908 0 0 1 38.95 8.85 L 35.425 9.375 L 35.425 19 L 38.45 19.5 Q 38.6 20 38.45 20.5 A 58.091 58.091 0 0 0 37.167 20.455 Q 36.013 20.425 34.575 20.425 Q 33.367 20.425 31.56 20.465 A 259.494 259.494 0 0 0 31.125 20.475 Q 30.96 20.104 31.067 19.683 A 1.652 1.652 0 0 1 31.125 19.5 L 32.95 19.1 A 32.797 32.797 0 0 0 33.018 17.864 Q 33.042 17.232 33.048 16.528 A 56.645 56.645 0 0 0 33.05 16.05 L 33.05 9.125 L 31.275 8.85 A 1.745 1.745 0 0 1 31.203 8.448 Q 31.186 8.157 31.275 7.875 L 33.05 7.875 L 33.05 6.175 Q 33.05 4.675 33.475 3.313 Q 33.9 1.95 34.888 0.975 A 3.411 3.411 0 0 1 35.959 0.244 A 3.16 3.16 0 0 1 37.2 0 A 6.903 6.903 0 0 1 38.56 0.122 Q 40.668 0.548 40.897 2.462 A 4.113 4.113 0 0 1 40.925 2.95 A 1.168 1.168 0 0 1 40.538 3.205 Q 39.869 3.494 38.425 3.475 Q 38.175 0.85 37.15 0.85 Q 36.2 0.85 35.813 2.363 A 8.171 8.171 0 0 0 35.644 3.27 Q 35.435 4.798 35.425 7.604 A 79.948 79.948 0 0 0 35.425 7.875 Z M 202.325 7.5 L 202.325 10.7 L 201.15 10.7 L 200.6 8 Q 199.5 7.475 198.275 7.475 Q 196.435 7.475 196.246 8.825 A 2.355 2.355 0 0 0 196.225 9.15 Q 196.225 10.05 196.9 10.8 A 4.392 4.392 0 0 0 197.454 11.31 Q 198.085 11.805 199.075 12.3 Q 200.032 12.79 200.771 13.237 A 19.287 19.287 0 0 1 200.875 13.3 Q 201.624 13.76 202.128 14.266 A 4.883 4.883 0 0 1 202.163 14.3 A 3.93 3.93 0 0 1 202.727 15.027 A 3.435 3.435 0 0 1 202.938 15.438 Q 203.2 16.05 203.2 16.825 Q 203.2 17.7 202.825 18.45 Q 202.45 19.2 201.775 19.738 A 4.781 4.781 0 0 1 200.797 20.334 A 6.043 6.043 0 0 1 200.15 20.588 A 6.221 6.221 0 0 1 198.821 20.863 A 7.754 7.754 0 0 1 198.05 20.9 Q 195.825 20.9 193.875 19.95 L 193.875 16.75 L 195.05 16.75 L 195.6 19.225 Q 196.875 19.8 198.3 19.8 Q 199.65 19.8 200.3 19.175 A 2.228 2.228 0 0 0 200.739 18.601 A 1.866 1.866 0 0 0 200.95 17.725 A 2.633 2.633 0 0 0 200.891 17.161 A 2.26 2.26 0 0 0 200.8 16.85 Q 200.65 16.45 200.313 16.075 A 3.647 3.647 0 0 0 199.977 15.75 Q 199.795 15.594 199.575 15.44 A 6.449 6.449 0 0 0 199.425 15.338 A 10.877 10.877 0 0 0 198.974 15.057 Q 198.719 14.906 198.422 14.746 A 22.026 22.026 0 0 0 198.05 14.55 Q 197.169 14.099 196.501 13.685 A 14.438 14.438 0 0 1 196.288 13.55 Q 195.55 13.075 195.075 12.55 Q 194.6 12.025 194.363 11.425 A 3.357 3.357 0 0 1 194.156 10.595 A 4.269 4.269 0 0 1 194.125 10.075 A 4.196 4.196 0 0 1 194.192 9.308 A 3.072 3.072 0 0 1 194.45 8.513 Q 194.775 7.85 195.363 7.413 A 3.814 3.814 0 0 1 196.305 6.904 A 4.677 4.677 0 0 1 196.75 6.763 A 6.208 6.208 0 0 1 197.705 6.591 A 7.966 7.966 0 0 1 198.525 6.55 Q 200.475 6.55 202.325 7.5 Z M 25.625 12.85 L 25.625 11.575 A 14.78 14.78 0 0 0 25.591 10.528 Q 25.518 9.507 25.291 8.854 A 2.953 2.953 0 0 0 25.138 8.488 A 1.806 1.806 0 0 0 24.677 7.897 Q 24.323 7.607 23.819 7.543 A 2.352 2.352 0 0 0 23.525 7.525 A 2.916 2.916 0 0 0 22.695 7.638 A 2.271 2.271 0 0 0 21.675 8.263 Q 21.038 8.934 20.773 10.465 A 10.12 10.12 0 0 0 20.725 10.775 A 13.488 13.488 0 0 1 20.352 10.852 Q 19.831 10.95 19.55 10.95 A 2.042 2.042 0 0 1 19.143 10.913 Q 18.922 10.868 18.764 10.768 A 0.82 0.82 0 0 1 18.4 10.25 A 3.037 3.037 0 0 1 19.449 7.881 A 4.067 4.067 0 0 1 19.875 7.55 Q 21.35 6.55 23.55 6.55 Q 25.975 6.55 26.988 7.538 Q 28 8.525 28 11.075 L 28 18.125 A 8.741 8.741 0 0 0 28.012 18.604 Q 28.025 18.83 28.05 19.027 A 4.462 4.462 0 0 0 28.075 19.2 L 30.05 19.45 Q 30.148 19.819 30.053 20.382 A 4.143 4.143 0 0 1 30.05 20.4 Q 28.275 20.475 26.275 20.75 A 0.885 0.885 0 0 1 26.034 20.297 A 1.094 1.094 0 0 1 26.025 20.25 L 25.9 18.525 A 8.272 8.272 0 0 1 24.452 19.853 A 5.409 5.409 0 0 1 21.275 20.9 A 4.446 4.446 0 0 1 20.273 20.794 Q 19.491 20.613 18.943 20.125 A 2.816 2.816 0 0 1 18.813 20 A 3.003 3.003 0 0 1 18.012 18.467 A 4.366 4.366 0 0 1 17.925 17.575 Q 17.925 15.553 19.539 14.4 A 5.219 5.219 0 0 1 20.013 14.1 Q 22.1 12.925 25.625 12.85 Z M 48.4 12.85 L 48.4 11.575 A 14.78 14.78 0 0 0 48.366 10.528 Q 48.293 9.507 48.066 8.854 A 2.953 2.953 0 0 0 47.913 8.488 A 1.806 1.806 0 0 0 47.452 7.897 Q 47.098 7.607 46.594 7.543 A 2.352 2.352 0 0 0 46.3 7.525 A 2.916 2.916 0 0 0 45.47 7.638 A 2.271 2.271 0 0 0 44.45 8.263 Q 43.813 8.934 43.548 10.465 A 10.12 10.12 0 0 0 43.5 10.775 A 13.488 13.488 0 0 1 43.127 10.852 Q 42.606 10.95 42.325 10.95 A 2.042 2.042 0 0 1 41.918 10.913 Q 41.697 10.868 41.539 10.768 A 0.82 0.82 0 0 1 41.175 10.25 A 3.037 3.037 0 0 1 42.224 7.881 A 4.067 4.067 0 0 1 42.65 7.55 Q 44.125 6.55 46.325 6.55 Q 48.75 6.55 49.763 7.538 Q 50.775 8.525 50.775 11.075 L 50.775 18.125 A 8.741 8.741 0 0 0 50.787 18.604 Q 50.8 18.83 50.825 19.027 A 4.462 4.462 0 0 0 50.85 19.2 L 52.825 19.45 Q 52.923 19.819 52.828 20.382 A 4.143 4.143 0 0 1 52.825 20.4 Q 51.05 20.475 49.05 20.75 A 0.885 0.885 0 0 1 48.809 20.297 A 1.094 1.094 0 0 1 48.8 20.25 L 48.675 18.525 A 8.272 8.272 0 0 1 47.227 19.853 A 5.409 5.409 0 0 1 44.05 20.9 A 4.446 4.446 0 0 1 43.048 20.794 Q 42.266 20.613 41.718 20.125 A 2.816 2.816 0 0 1 41.588 20 A 3.003 3.003 0 0 1 40.787 18.467 A 4.366 4.366 0 0 1 40.7 17.575 Q 40.7 15.553 42.314 14.4 A 5.219 5.219 0 0 1 42.788 14.1 Q 44.875 12.925 48.4 12.85 Z M 141.125 10.25 Q 140.6 10.8 138.65 10.775 A 8.128 8.128 0 0 0 138.429 9.635 Q 138.075 8.356 137.339 7.891 A 1.766 1.766 0 0 0 136.375 7.625 A 2.447 2.447 0 0 0 134.707 8.289 Q 134.259 8.688 133.875 9.325 A 6.525 6.525 0 0 0 133.159 11.078 Q 132.951 11.884 132.883 12.836 A 13.532 13.532 0 0 0 132.85 13.8 A 14.521 14.521 0 0 0 132.936 15.434 Q 133.026 16.227 133.21 16.881 A 5.569 5.569 0 0 0 133.75 18.188 Q 134.569 19.586 136.132 19.713 A 3.946 3.946 0 0 0 136.45 19.725 A 4.982 4.982 0 0 0 138.709 19.164 Q 139.399 18.818 140.078 18.256 A 9.178 9.178 0 0 0 140.175 18.175 A 1.158 1.158 0 0 1 140.52 18.5 Q 140.621 18.641 140.7 18.824 A 2.307 2.307 0 0 1 140.75 18.95 A 5.969 5.969 0 0 1 136.431 20.896 A 7.578 7.578 0 0 1 136.175 20.9 A 6.194 6.194 0 0 1 134.008 20.535 A 5.462 5.462 0 0 1 131.875 19.088 A 5.759 5.759 0 0 1 130.652 16.951 Q 130.2 15.582 130.2 13.75 Q 130.2 10.375 132.063 8.463 A 6.753 6.753 0 0 1 133.697 7.207 A 5.466 5.466 0 0 1 136.325 6.55 A 6.44 6.44 0 0 1 138.294 6.843 A 5.636 5.636 0 0 1 139.675 7.5 A 3.17 3.17 0 0 1 140.713 8.572 Q 141.061 9.178 141.115 9.956 A 4.219 4.219 0 0 1 141.125 10.25 Z M 64.575 13.35 L 56.725 13.35 A 18.918 18.918 0 0 0 56.714 13.844 Q 56.661 19.58 60.36 19.722 A 4.958 4.958 0 0 0 60.55 19.725 A 4.379 4.379 0 0 0 62.321 19.332 Q 62.918 19.07 63.523 18.633 A 9.019 9.019 0 0 0 64.075 18.2 A 1.158 1.158 0 0 1 64.42 18.525 Q 64.521 18.666 64.6 18.849 A 2.307 2.307 0 0 1 64.65 18.975 A 5.578 5.578 0 0 1 60.603 20.893 A 7.066 7.066 0 0 1 60.275 20.9 A 7.359 7.359 0 0 1 57.678 20.479 Q 54.175 19.163 54.175 13.725 A 10.331 10.331 0 0 1 54.378 11.612 Q 54.78 9.691 55.975 8.438 A 6.382 6.382 0 0 1 57.649 7.156 A 5.403 5.403 0 0 1 60.175 6.55 A 5.904 5.904 0 0 1 61.638 6.72 A 3.712 3.712 0 0 1 63.95 8.375 A 6.942 6.942 0 0 1 64.79 10.383 Q 65.013 11.262 65.075 12.294 A 13.705 13.705 0 0 1 65.1 13.125 A 1.126 1.126 0 0 1 64.862 13.273 A 0.885 0.885 0 0 1 64.575 13.35 Z M 112.775 13.35 L 104.925 13.35 A 18.918 18.918 0 0 0 104.914 13.844 Q 104.861 19.58 108.56 19.722 A 4.958 4.958 0 0 0 108.75 19.725 A 4.379 4.379 0 0 0 110.521 19.332 Q 111.118 19.07 111.723 18.633 A 9.019 9.019 0 0 0 112.275 18.2 A 1.158 1.158 0 0 1 112.62 18.525 Q 112.721 18.666 112.8 18.849 A 2.307 2.307 0 0 1 112.85 18.975 A 5.578 5.578 0 0 1 108.803 20.893 A 7.066 7.066 0 0 1 108.475 20.9 A 7.359 7.359 0 0 1 105.878 20.479 Q 102.375 19.163 102.375 13.725 A 10.331 10.331 0 0 1 102.578 11.612 Q 102.98 9.691 104.175 8.438 A 6.382 6.382 0 0 1 105.849 7.156 A 5.403 5.403 0 0 1 108.375 6.55 A 5.904 5.904 0 0 1 109.838 6.72 A 3.712 3.712 0 0 1 112.15 8.375 A 6.942 6.942 0 0 1 112.99 10.383 Q 113.213 11.262 113.275 12.294 A 13.705 13.705 0 0 1 113.3 13.125 A 1.126 1.126 0 0 1 113.062 13.273 A 0.885 0.885 0 0 1 112.775 13.35 Z M 160.975 13.35 L 153.125 13.35 A 18.918 18.918 0 0 0 153.114 13.844 Q 153.061 19.58 156.76 19.722 A 4.958 4.958 0 0 0 156.95 19.725 A 4.379 4.379 0 0 0 158.721 19.332 Q 159.318 19.07 159.923 18.633 A 9.019 9.019 0 0 0 160.475 18.2 A 1.158 1.158 0 0 1 160.82 18.525 Q 160.921 18.666 161 18.849 A 2.307 2.307 0 0 1 161.05 18.975 A 5.578 5.578 0 0 1 157.003 20.893 A 7.066 7.066 0 0 1 156.675 20.9 A 7.359 7.359 0 0 1 154.078 20.479 Q 150.575 19.163 150.575 13.725 A 10.331 10.331 0 0 1 150.778 11.612 Q 151.18 9.691 152.375 8.438 A 6.382 6.382 0 0 1 154.049 7.156 A 5.403 5.403 0 0 1 156.575 6.55 A 5.904 5.904 0 0 1 158.038 6.72 A 3.712 3.712 0 0 1 160.35 8.375 A 6.942 6.942 0 0 1 161.19 10.383 Q 161.413 11.262 161.475 12.294 A 13.705 13.705 0 0 1 161.5 13.125 A 1.126 1.126 0 0 1 161.262 13.273 A 0.885 0.885 0 0 1 160.975 13.35 Z M 71.1 4.55 L 71.1 19.125 L 73.125 19.5 A 1.637 1.637 0 0 1 73.165 19.741 Q 73.197 20.066 73.127 20.491 A 4.383 4.383 0 0 1 73.125 20.5 Q 71.55 20.425 69.9 20.425 Q 69.02 20.425 67.582 20.455 A 273.509 273.509 0 0 0 66.65 20.475 Q 66.509 20.03 66.632 19.563 A 1.908 1.908 0 0 1 66.65 19.5 L 68.625 19.225 Q 68.711 18.044 68.723 16.548 A 61.621 61.621 0 0 0 68.725 16.05 L 68.725 1.725 L 66.675 1.475 Q 66.577 1.106 66.672 0.544 A 4.143 4.143 0 0 1 66.675 0.525 A 36.376 36.376 0 0 0 68.025 0.4 Q 69.325 0.257 70.975 0 A 1.238 1.238 0 0 1 71.108 0.176 Q 71.174 0.282 71.204 0.389 A 0.66 0.66 0 0 1 71.225 0.5 Q 71.1 1.15 71.1 4.55 Z M 146.9 4.55 L 146.9 19.125 L 148.925 19.5 A 1.637 1.637 0 0 1 148.965 19.741 Q 148.997 20.066 148.927 20.491 A 4.383 4.383 0 0 1 148.925 20.5 Q 147.35 20.425 145.7 20.425 Q 144.82 20.425 143.382 20.455 A 273.509 273.509 0 0 0 142.45 20.475 Q 142.309 20.03 142.432 19.563 A 1.908 1.908 0 0 1 142.45 19.5 L 144.425 19.225 Q 144.511 18.044 144.523 16.548 A 61.621 61.621 0 0 0 144.525 16.05 L 144.525 1.725 L 142.475 1.475 Q 142.377 1.106 142.472 0.544 A 4.143 4.143 0 0 1 142.475 0.525 A 36.376 36.376 0 0 0 143.825 0.4 Q 145.125 0.257 146.775 0 A 1.238 1.238 0 0 1 146.908 0.176 Q 146.974 0.282 147.004 0.389 A 0.66 0.66 0 0 1 147.025 0.5 Q 146.9 1.15 146.9 4.55 Z M 115.694 11.616 A 9.116 9.116 0 0 0 115.45 13.75 A 10.493 10.493 0 0 0 115.495 14.732 A 8.532 8.532 0 0 0 115.888 16.638 A 7.727 7.727 0 0 0 116.099 17.2 A 6.461 6.461 0 0 0 117.138 18.9 Q 117.95 19.85 119.113 20.375 A 5.687 5.687 0 0 0 120.281 20.754 A 7.094 7.094 0 0 0 121.75 20.9 Q 123.15 20.9 124.325 20.363 Q 125.5 19.825 126.338 18.863 A 6.507 6.507 0 0 0 126.779 18.295 A 7.199 7.199 0 0 0 127.638 16.6 A 7.652 7.652 0 0 0 127.928 15.547 A 9.073 9.073 0 0 0 128.1 13.75 A 9.746 9.746 0 0 0 128.091 13.332 A 8.463 8.463 0 0 0 127.65 10.938 A 7.885 7.885 0 0 0 127.531 10.615 A 6.798 6.798 0 0 0 126.363 8.65 Q 125.525 7.675 124.35 7.113 Q 123.175 6.55 121.75 6.55 A 6.963 6.963 0 0 0 121.043 6.585 A 5.657 5.657 0 0 0 119.138 7.113 Q 117.975 7.675 117.15 8.65 A 6.401 6.401 0 0 0 116.717 9.225 A 7.095 7.095 0 0 0 115.888 10.938 A 8.185 8.185 0 0 0 115.694 11.616 Z M 163.894 11.616 A 9.116 9.116 0 0 0 163.65 13.75 A 10.493 10.493 0 0 0 163.695 14.732 A 8.532 8.532 0 0 0 164.088 16.638 A 7.727 7.727 0 0 0 164.299 17.2 A 6.461 6.461 0 0 0 165.338 18.9 Q 166.15 19.85 167.313 20.375 A 5.687 5.687 0 0 0 168.481 20.754 A 7.094 7.094 0 0 0 169.95 20.9 Q 171.35 20.9 172.525 20.363 Q 173.7 19.825 174.538 18.863 A 6.507 6.507 0 0 0 174.979 18.295 A 7.199 7.199 0 0 0 175.838 16.6 A 7.652 7.652 0 0 0 176.128 15.547 A 9.073 9.073 0 0 0 176.3 13.75 A 9.746 9.746 0 0 0 176.291 13.332 A 8.463 8.463 0 0 0 175.85 10.938 A 7.885 7.885 0 0 0 175.731 10.615 A 6.798 6.798 0 0 0 174.563 8.65 Q 173.725 7.675 172.55 7.113 Q 171.375 6.55 169.95 6.55 A 6.963 6.963 0 0 0 169.243 6.585 A 5.657 5.657 0 0 0 167.338 7.113 Q 166.175 7.675 165.35 8.65 A 6.401 6.401 0 0 0 164.917 9.225 A 7.095 7.095 0 0 0 164.088 10.938 A 8.185 8.185 0 0 0 163.894 11.616 Z M 119.1 9.15 A 4.954 4.954 0 0 0 118.45 10.496 Q 118.025 11.816 118.025 13.75 A 13.741 13.741 0 0 0 118.08 15.013 Q 118.151 15.778 118.313 16.425 A 7.872 7.872 0 0 0 118.593 17.327 Q 118.811 17.897 119.1 18.338 A 3.929 3.929 0 0 0 119.607 18.968 A 3.023 3.023 0 0 0 120.275 19.475 Q 120.95 19.85 121.75 19.85 Q 122.525 19.85 123.225 19.475 Q 123.925 19.1 124.425 18.338 Q 124.925 17.575 125.225 16.425 A 8.727 8.727 0 0 0 125.44 15.265 Q 125.512 14.671 125.523 14.001 A 15.035 15.035 0 0 0 125.525 13.75 A 13.248 13.248 0 0 0 125.468 12.485 Q 125.405 11.837 125.275 11.27 A 7.8 7.8 0 0 0 125.225 11.063 A 7.955 7.955 0 0 0 124.946 10.184 Q 124.774 9.739 124.56 9.373 A 4.455 4.455 0 0 0 124.413 9.138 A 4.052 4.052 0 0 0 123.856 8.469 A 3.201 3.201 0 0 0 123.213 7.988 Q 122.525 7.6 121.75 7.6 A 2.889 2.889 0 0 0 119.754 8.401 A 4.612 4.612 0 0 0 119.1 9.15 Z M 167.3 9.15 A 4.954 4.954 0 0 0 166.65 10.496 Q 166.225 11.816 166.225 13.75 A 13.741 13.741 0 0 0 166.28 15.013 Q 166.351 15.778 166.513 16.425 A 7.872 7.872 0 0 0 166.793 17.327 Q 167.011 17.897 167.3 18.338 A 3.929 3.929 0 0 0 167.807 18.968 A 3.023 3.023 0 0 0 168.475 19.475 Q 169.15 19.85 169.95 19.85 Q 170.725 19.85 171.425 19.475 Q 172.125 19.1 172.625 18.338 Q 173.125 17.575 173.425 16.425 A 8.727 8.727 0 0 0 173.64 15.265 Q 173.712 14.671 173.723 14.001 A 15.035 15.035 0 0 0 173.725 13.75 A 13.248 13.248 0 0 0 173.668 12.485 Q 173.605 11.837 173.475 11.27 A 7.8 7.8 0 0 0 173.425 11.063 A 7.955 7.955 0 0 0 173.146 10.184 Q 172.974 9.739 172.76 9.373 A 4.455 4.455 0 0 0 172.613 9.138 A 4.052 4.052 0 0 0 172.056 8.469 A 3.201 3.201 0 0 0 171.413 7.988 Q 170.725 7.6 169.95 7.6 A 2.889 2.889 0 0 0 167.954 8.401 A 4.612 4.612 0 0 0 167.3 9.15 Z M 4.925 4.575 L 4.925 10.175 Q 5.7 10.275 7.175 10.275 A 6.603 6.603 0 0 0 8.186 10.202 Q 8.734 10.117 9.195 9.934 A 3.906 3.906 0 0 0 9.363 9.863 A 3.78 3.78 0 0 0 10.05 9.466 A 2.732 2.732 0 0 0 10.725 8.763 A 5.202 5.202 0 0 0 11.242 7.758 A 4.603 4.603 0 0 0 11.375 7.35 A 5.674 5.674 0 0 0 11.574 5.925 A 6.345 6.345 0 0 0 11.575 5.825 A 6.916 6.916 0 0 0 11.454 4.488 Q 11.3 3.709 10.952 3.102 A 3.682 3.682 0 0 0 10.5 2.475 A 3.179 3.179 0 0 0 9.26 1.645 Q 8.734 1.44 8.073 1.349 A 8.418 8.418 0 0 0 6.925 1.275 Q 6 1.275 5.075 1.45 Q 4.925 2.875 4.925 4.575 Z M 25.625 17.65 L 25.625 13.75 Q 23.109 13.897 21.739 14.628 A 4.497 4.497 0 0 0 21.675 14.663 A 2.684 2.684 0 0 0 20.774 15.444 Q 20.3 16.107 20.3 17.075 A 5.679 5.679 0 0 0 20.33 17.678 Q 20.419 18.51 20.775 18.913 A 1.458 1.458 0 0 0 21.399 19.32 Q 21.64 19.405 21.937 19.434 A 3.402 3.402 0 0 0 22.275 19.45 Q 23.025 19.45 23.938 18.988 A 5.362 5.362 0 0 0 25.121 18.163 A 6.667 6.667 0 0 0 25.625 17.65 Z M 48.4 17.65 L 48.4 13.75 Q 45.884 13.897 44.514 14.628 A 4.497 4.497 0 0 0 44.45 14.663 A 2.684 2.684 0 0 0 43.549 15.444 Q 43.075 16.107 43.075 17.075 A 5.679 5.679 0 0 0 43.105 17.678 Q 43.194 18.51 43.55 18.913 A 1.458 1.458 0 0 0 44.174 19.32 Q 44.415 19.405 44.712 19.434 A 3.402 3.402 0 0 0 45.05 19.45 Q 45.8 19.45 46.713 18.988 A 5.362 5.362 0 0 0 47.896 18.163 A 6.667 6.667 0 0 0 48.4 17.65 Z M 56.8 12.35 L 59.9 12.35 A 24.372 24.372 0 0 0 60.759 12.336 Q 61.584 12.307 62.125 12.217 A 4.01 4.01 0 0 0 62.55 12.125 Q 62.55 10.075 61.925 8.813 A 2.917 2.917 0 0 0 61.53 8.203 A 1.776 1.776 0 0 0 60.125 7.55 A 2.343 2.343 0 0 0 58.505 8.203 A 3.862 3.862 0 0 0 57.913 8.9 Q 57 10.25 56.8 12.35 Z M 105 12.35 L 108.1 12.35 A 24.372 24.372 0 0 0 108.959 12.336 Q 109.784 12.307 110.325 12.217 A 4.01 4.01 0 0 0 110.75 12.125 Q 110.75 10.075 110.125 8.813 A 2.917 2.917 0 0 0 109.73 8.203 A 1.776 1.776 0 0 0 108.325 7.55 A 2.343 2.343 0 0 0 106.705 8.203 A 3.862 3.862 0 0 0 106.113 8.9 Q 105.2 10.25 105 12.35 Z M 153.2 12.35 L 156.3 12.35 A 24.372 24.372 0 0 0 157.159 12.336 Q 157.984 12.307 158.525 12.217 A 4.01 4.01 0 0 0 158.95 12.125 Q 158.95 10.075 158.325 8.813 A 2.917 2.917 0 0 0 157.93 8.203 A 1.776 1.776 0 0 0 156.525 7.55 A 2.343 2.343 0 0 0 154.905 8.203 A 3.862 3.862 0 0 0 154.313 8.9 Q 153.4 10.25 153.2 12.35 Z" vector-effect="non-scaling-stroke"/></g></svg>